<?xml version="1.0"?>
<svg xmlns="http://www.w3.org/2000/svg" xmlns:xlink="http://www.w3.org/1999/xlink" xmlns:svgjs="http://svgjs.com/svgjs" version="1.1" width="512" height="512" x="0" y="0" viewBox="0 0 512 512" style="enable-background:new 0 0 512 512" xml:space="preserve" class=""><g><path xmlns="http://www.w3.org/2000/svg" d="M504,256a8.006,8.006,0,0,0-5.03-7.43L347.54,188l151.43-60.57a8,8,0,0,0,0-14.86l-240-96a8.023,8.023,0,0,0-5.94,0l-240,96a8,8,0,0,0,0,14.86L164.46,188,13.03,248.57a8,8,0,0,0,0,14.86L164.46,324,13.03,384.57a8,8,0,0,0,0,14.86l240,96a8.023,8.023,0,0,0,5.94,0l240-96a8,8,0,0,0,0-14.86L347.54,324l151.43-60.57A8.006,8.006,0,0,0,504,256ZM37.54,120,256,32.62,474.46,120,256,207.38ZM474.46,392,256,479.38,37.54,392,186,332.62l67.03,26.81a8.023,8.023,0,0,0,5.94,0L326,332.62ZM256,343.38,37.54,256,186,196.62l67.03,26.81a8.023,8.023,0,0,0,5.94,0L326,196.62,474.46,256Z" fill="#585858" data-original="#000000" style="" class=""/></g></svg>
